<svg width="1710" height="950" viewBox="0 0 1710 950" fill="none" xmlns="http://www.w3.org/2000/svg">
<rect width="1710" height="950" fill="url(#paint0_radial_375_69)"/>
<path d="M194.789 227.12H207.749V233.54H194.789V227.12ZM203.549 212.84H211.529V253.34H203.549V212.84ZM174.869 261.02H212.789V267.38H174.869V261.02ZM174.869 249.92H182.849V264.8H174.869V249.92ZM177.869 220.1H184.349V223.58C184.349 234.02 179.429 243.68 168.749 247.22L164.729 240.86C173.909 237.86 177.869 230.6 177.869 223.58V220.1ZM179.549 220.1H185.969V223.58C185.969 230.06 189.749 236.96 198.509 239.9L194.609 246.14C184.289 242.72 179.549 233.48 179.549 223.58V220.1ZM166.889 216.56H196.769V222.86H166.889V216.56ZM232.424 221.54H238.724V227.78C238.724 240.32 233.444 253.1 223.244 257.9L218.744 251.6C227.924 247.28 232.424 236.9 232.424 227.78V221.54ZM234.104 221.54H240.404V227.78C240.404 236.18 244.724 246.02 253.844 250.22L249.464 256.52C239.264 251.78 234.104 239.6 234.104 227.78V221.54ZM220.904 218.12H251.384V224.66H220.904V218.12ZM255.464 212.78H263.504V268.34H255.464V212.78ZM261.704 233.96H271.544V240.56H261.704V233.96ZM313.14 212.78H321.18V268.34H313.14V212.78ZM296.76 218.54H304.68C304.68 235.52 298.92 249.44 279.18 258.98L275.04 252.62C291 244.94 296.76 234.86 296.76 219.98V218.54ZM277.98 218.54H300.54V224.84H277.98V218.54ZM368.055 212.78H376.095V268.34H368.055V212.78ZM351.675 218.54H359.595C359.595 235.52 353.835 249.44 334.095 258.98L329.955 252.62C345.915 244.94 351.675 234.86 351.675 219.98V218.54ZM332.895 218.54H355.455V224.84H332.895V218.54ZM422.23 240.68H430.21V250.46H422.23V240.68ZM401.11 238.04H451.33V244.34H401.11V238.04ZM426.13 248.3C438.13 248.3 445.39 251.9 445.39 258.32C445.39 264.74 438.13 268.34 426.13 268.34C414.07 268.34 406.81 264.74 406.81 258.32C406.81 251.9 414.07 248.3 426.13 248.3ZM426.13 254.3C418.69 254.3 414.91 255.56 414.91 258.32C414.91 261.02 418.69 262.34 426.13 262.34C433.57 262.34 437.35 261.02 437.35 258.32C437.35 255.56 433.57 254.3 426.13 254.3ZM420.73 218H427.81V219.38C427.81 227.72 420.31 234.56 405.97 235.88L403.21 229.64C415.39 228.62 420.73 223.7 420.73 219.38V218ZM424.63 218H431.71V219.38C431.71 223.76 436.99 228.62 449.23 229.64L446.47 235.88C432.19 234.56 424.63 227.78 424.63 219.38V218ZM405.67 215.06H446.83V221.36H405.67V215.06ZM461.185 217.46H496.405V223.88H461.185V217.46ZM456.085 255.2H506.305V261.68H456.085V255.2ZM473.845 236.12H481.825V258.38H473.845V236.12ZM493.525 217.46H501.505V222.8C501.505 229.76 501.505 237.56 499.285 249.44L491.305 248.54C493.525 237.5 493.525 229.46 493.525 222.8V217.46ZM549.46 212.78H557.44V268.34H549.46V212.78ZM538.72 234.08H553.3V240.56H538.72V234.08ZM531.22 218.54H539.08C539.08 235.4 533.74 249.14 514.48 258.8L510.28 252.56C526 244.76 531.22 234.68 531.22 219.98V218.54ZM512.92 218.54H535.42V224.84H512.92V218.54ZM567.356 249.5H571.256C577.856 249.5 583.676 249.38 590.516 248.3L591.116 254.72C584.036 255.92 578.036 256.1 571.256 256.1H567.356V249.5ZM567.296 218.18H588.356V239.66H575.096V251.9H567.356V233.36H580.616V224.54H567.296V218.18ZM605.996 212.78H613.556V268.34H605.996V212.78ZM598.556 233.78H607.796V240.14H598.556V233.78ZM593.576 213.74H600.956V265.7H593.576V213.74Z" fill="#F5F5F7"/>
<path d="M252.507 361.44H302.787V367.92H252.507V361.44ZM273.567 349.14H281.547V362.94H273.567V349.14ZM257.727 322.86H297.267V350.16H257.727V322.86ZM289.467 329.22H265.587V343.86H289.467V329.22ZM313.722 338.4H351.882V344.76H313.722V338.4ZM307.362 350.22H357.702V356.64H307.362V350.22ZM328.362 353.94H336.282V374.28H328.362V353.94ZM313.722 321.72H351.342V328.08H321.882V341.46H313.722V321.72ZM696.443 339.24H705.563V345.66H696.443V339.24ZM714.383 318.78H722.003V374.34H714.383V318.78ZM703.043 319.62H710.543V371.82H703.043V319.62ZM686.723 322.68C694.103 322.68 698.843 330.3 698.843 342.84C698.843 355.44 694.103 363.06 686.723 363.06C679.403 363.06 674.723 355.44 674.723 342.84C674.723 330.3 679.403 322.68 686.723 322.68ZM686.723 330.18C683.723 330.18 681.983 334.38 681.983 342.84C681.983 351.36 683.723 355.5 686.723 355.5C689.843 355.5 691.583 351.36 691.583 342.84C691.583 334.38 689.843 330.18 686.723 330.18ZM757.178 336.12H771.818V342.54H757.178V336.12ZM742.058 323.04H748.538V331.08C748.538 345.06 743.798 357.96 733.358 363.18L728.378 356.76C737.858 352.38 742.058 341.64 742.058 331.08V323.04ZM743.738 323.04H750.098V331.08C750.098 341.64 754.118 351.78 763.298 355.86L758.558 362.22C748.118 357.18 743.738 344.94 743.738 331.08V323.04ZM767.858 318.72H775.778V374.46H767.858V318.72Z" fill="#F5F5F7"/>
<g filter="url(#filter0_d_375_69)">
<path d="M542.039 343.38L517.645 338.81C517.042 338.696 516.771 337.976 517.146 337.485L535.603 313.345C536.158 312.619 535.31 311.653 534.533 312.125L485.541 341.857C484.897 342.247 485.067 343.236 485.803 343.383L508.021 347.833C508.6 347.949 508.872 348.628 508.536 349.12L492.415 372.696C491.915 373.427 492.746 374.335 493.504 373.885L542.304 344.912C542.96 344.523 542.785 343.519 542.039 343.38Z" fill="#6DE5FF"/>
<path d="M395.757 368.821C394.46 368.772 393.354 368.316 392.442 367.451C391.529 366.538 391.048 365.433 391 364.135V346.186C391.048 342.774 391.529 339.554 392.442 336.526C393.403 333.499 394.964 330.952 397.126 328.885C399.337 326.771 402.124 325.617 405.487 325.425H433.308C434.606 325.473 435.687 325.954 436.552 326.867C437.465 327.732 437.945 328.813 437.993 330.111C437.993 331.456 437.537 332.61 436.624 333.571C435.759 334.532 434.654 335.037 433.308 335.085H407.938C406.112 335.181 404.598 335.877 403.397 337.175C402.196 338.472 401.427 339.962 401.091 341.644C400.802 343.278 400.682 345.08 400.73 347.051V364.135C400.682 365.481 400.178 366.61 399.217 367.523C398.256 368.388 397.102 368.821 395.757 368.821ZM404.118 349.862C404.118 348.516 404.598 347.387 405.559 346.474C406.472 345.513 407.601 345.032 408.947 345.032H433.308C434.654 345.032 435.783 345.513 436.696 346.474C437.657 347.387 438.137 348.516 438.137 349.862C438.137 351.208 437.681 352.361 436.768 353.322C435.807 354.235 434.654 354.692 433.308 354.692H408.947C407.601 354.692 406.448 354.235 405.487 353.322C404.574 352.361 404.118 351.208 404.118 349.862ZM467.688 369.613C465.19 369.613 462.715 369.325 460.265 368.748C457.862 368.172 455.556 367.331 453.345 366.225C451.135 365.072 449.189 363.558 447.507 361.684C445.825 359.81 444.912 357.575 444.768 354.98V351.953V328.957C444.768 327.612 445.249 326.506 446.21 325.641C447.219 324.728 448.396 324.272 449.742 324.272C452.624 324.512 454.186 326.074 454.426 328.957V352.745C454.522 354.235 455.075 355.485 456.084 356.494C457.141 357.455 458.294 358.224 459.544 358.801C460.841 359.377 462.162 359.81 463.508 360.098C464.901 360.387 466.295 360.531 467.688 360.531C469.082 360.531 470.451 360.387 471.797 360.098C473.19 359.81 474.511 359.377 475.761 358.801C477.058 358.224 478.211 357.455 479.22 356.494C480.277 355.485 480.854 354.235 480.95 352.745V328.957C480.95 327.612 481.431 326.506 482.392 325.641C483.401 324.728 484.578 324.272 485.923 324.272C488.806 324.512 490.392 326.074 490.68 328.957V351.953V354.98C490.536 357.575 489.599 359.81 487.869 361.684C486.188 363.558 484.242 365.072 482.031 366.225C479.821 367.331 477.49 368.172 475.04 368.748C472.637 369.325 470.187 369.613 467.688 369.613ZM550.575 325.425H553.89H578.396C579.741 325.473 580.847 325.978 581.712 326.939C582.624 327.9 583.082 329.053 583.082 330.399C582.841 333.282 581.279 334.844 578.396 335.085H553.025C551.199 335.181 549.686 335.877 548.485 337.175C547.283 338.472 546.394 339.962 545.817 341.644C545.289 343.278 545.025 344.96 545.025 346.69C545.025 348.42 545.289 350.126 545.817 351.808C546.394 353.442 547.283 354.908 548.485 356.206C549.686 357.503 551.199 358.2 553.025 358.296H578.396C579.741 358.344 580.847 358.849 581.712 359.81C582.624 360.771 583.082 361.924 583.082 363.27C583.033 364.567 582.553 365.673 581.639 366.586C580.774 367.451 579.694 367.907 578.396 367.955H551.945H550.575C547.211 367.763 544.424 366.49 542.214 364.135C540.052 361.732 538.49 359.017 537.529 355.989C536.617 352.962 536.159 349.862 536.159 346.69C536.159 343.519 536.64 340.419 537.601 337.391C538.562 334.364 540.124 331.672 542.286 329.318C544.449 326.915 547.211 325.617 550.575 325.425ZM582.937 346.402C582.937 347.748 582.456 348.877 581.495 349.79C580.583 350.751 579.453 351.232 578.107 351.232H556.34C554.996 351.232 553.843 350.775 552.882 349.862C551.968 348.901 551.512 347.748 551.512 346.402C551.512 345.056 551.968 343.903 552.882 342.942C553.843 342.029 554.996 341.572 556.34 341.572H578.107C579.453 341.572 580.583 342.053 581.495 343.014C582.456 343.927 582.937 345.056 582.937 346.402ZM600.018 364.279C599.731 367.162 598.145 368.724 595.262 368.965C593.916 368.965 592.74 368.532 591.73 367.667C590.769 366.754 590.288 365.625 590.288 364.279V330.111C590.337 328.765 590.841 327.66 591.802 326.795C592.763 325.882 593.916 325.425 595.262 325.425H598.793H607.659H625.462C625.75 325.425 626.038 325.449 626.326 325.497H626.758C630.122 325.593 632.885 326.362 635.048 327.804C637.21 329.246 638.771 330.904 639.733 332.778C640.694 334.604 641.174 336.454 641.174 338.328C641.174 340.251 640.694 342.149 639.733 344.023C638.819 345.849 637.258 347.483 635.048 348.925C632.885 350.367 630.122 351.136 626.758 351.232H614.074C614.458 353.634 615.25 355.413 616.452 356.566C617.605 357.719 619.071 358.296 620.849 358.296H636.416C637.762 358.344 638.868 358.849 639.733 359.81C640.645 360.771 641.101 361.924 641.101 363.27C641.054 364.567 640.573 365.673 639.661 366.586C638.796 367.451 637.714 367.907 636.416 367.955H619.552C615.996 368.004 612.776 366.61 609.894 363.774C607.011 360.939 605.256 357.575 604.631 353.683C603.766 349.357 603.334 346.931 603.334 346.402C603.334 345.056 603.791 343.927 604.704 343.014C605.665 342.053 606.817 341.572 608.164 341.572H627.191C628.104 341.524 628.848 341.332 629.425 340.995C630.05 340.611 630.507 340.203 630.795 339.77C631.083 339.289 631.228 338.809 631.228 338.328C631.228 337.848 631.083 337.391 630.795 336.959C630.507 336.478 630.05 336.07 629.425 335.733C628.848 335.349 628.104 335.133 627.191 335.085H607.659H601.893C600.643 335.133 600.018 335.757 600.018 336.959V364.279Z" fill="white"/>
<path d="M395.757 368.821C394.46 368.772 393.354 368.316 392.442 367.451C391.529 366.538 391.048 365.433 391 364.135V346.186C391.048 342.774 391.529 339.554 392.442 336.526C393.403 333.499 394.964 330.952 397.126 328.885C399.337 326.771 402.124 325.617 405.487 325.425H433.308C434.606 325.473 435.687 325.954 436.552 326.867C437.465 327.732 437.945 328.813 437.993 330.111C437.993 331.456 437.537 332.61 436.624 333.571C435.759 334.532 434.654 335.037 433.308 335.085H407.938C406.112 335.181 404.598 335.877 403.397 337.175C402.196 338.472 401.427 339.962 401.091 341.644C400.802 343.278 400.682 345.08 400.73 347.051V364.135C400.682 365.481 400.178 366.61 399.217 367.523C398.256 368.388 397.102 368.821 395.757 368.821ZM404.118 349.862C404.118 348.516 404.598 347.387 405.559 346.474C406.472 345.513 407.601 345.032 408.947 345.032H433.308C434.654 345.032 435.783 345.513 436.696 346.474C437.657 347.387 438.137 348.516 438.137 349.862C438.137 351.208 437.681 352.361 436.768 353.322C435.807 354.235 434.654 354.692 433.308 354.692H408.947C407.601 354.692 406.448 354.235 405.487 353.322C404.574 352.361 404.118 351.208 404.118 349.862ZM467.688 369.613C465.19 369.613 462.715 369.325 460.265 368.748C457.862 368.172 455.556 367.331 453.345 366.225C451.135 365.072 449.189 363.558 447.507 361.684C445.825 359.81 444.912 357.575 444.768 354.98V351.953V328.957C444.768 327.612 445.249 326.506 446.21 325.641C447.219 324.728 448.396 324.272 449.742 324.272C452.624 324.512 454.186 326.074 454.426 328.957V352.745C454.522 354.235 455.075 355.485 456.084 356.494C457.141 357.455 458.294 358.224 459.544 358.801C460.841 359.377 462.162 359.81 463.508 360.098C464.901 360.387 466.295 360.531 467.688 360.531C469.082 360.531 470.451 360.387 471.797 360.098C473.19 359.81 474.511 359.377 475.761 358.801C477.058 358.224 478.211 357.455 479.22 356.494C480.277 355.485 480.854 354.235 480.95 352.745V328.957C480.95 327.612 481.431 326.506 482.392 325.641C483.401 324.728 484.578 324.272 485.923 324.272C488.806 324.512 490.392 326.074 490.68 328.957V351.953V354.98C490.536 357.575 489.599 359.81 487.869 361.684C486.188 363.558 484.242 365.072 482.031 366.225C479.821 367.331 477.49 368.172 475.04 368.748C472.637 369.325 470.187 369.613 467.688 369.613ZM550.575 325.425H553.89H578.396C579.741 325.473 580.847 325.978 581.712 326.939C582.624 327.9 583.082 329.053 583.082 330.399C582.841 333.282 581.279 334.844 578.396 335.085H553.025C551.199 335.181 549.686 335.877 548.485 337.175C547.283 338.472 546.394 339.962 545.817 341.644C545.289 343.278 545.025 344.96 545.025 346.69C545.025 348.42 545.289 350.126 545.817 351.808C546.394 353.442 547.283 354.908 548.485 356.206C549.686 357.503 551.199 358.2 553.025 358.296H578.396C579.741 358.344 580.847 358.849 581.712 359.81C582.624 360.771 583.082 361.924 583.082 363.27C583.033 364.567 582.553 365.673 581.639 366.586C580.774 367.451 579.694 367.907 578.396 367.955H551.945H550.575C547.211 367.763 544.424 366.49 542.214 364.135C540.052 361.732 538.49 359.017 537.529 355.989C536.617 352.962 536.159 349.862 536.159 346.69C536.159 343.519 536.64 340.419 537.601 337.391C538.562 334.364 540.124 331.672 542.286 329.318C544.449 326.915 547.211 325.617 550.575 325.425ZM582.937 346.402C582.937 347.748 582.456 348.877 581.495 349.79C580.583 350.751 579.453 351.232 578.107 351.232H556.34C554.996 351.232 553.843 350.775 552.882 349.862C551.968 348.901 551.512 347.748 551.512 346.402C551.512 345.056 551.968 343.903 552.882 342.942C553.843 342.029 554.996 341.572 556.34 341.572H578.107C579.453 341.572 580.583 342.053 581.495 343.014C582.456 343.927 582.937 345.056 582.937 346.402ZM600.018 364.279C599.731 367.162 598.145 368.724 595.262 368.965C593.916 368.965 592.74 368.532 591.73 367.667C590.769 366.754 590.288 365.625 590.288 364.279V330.111C590.337 328.765 590.841 327.66 591.802 326.795C592.763 325.882 593.916 325.425 595.262 325.425H598.793H607.659H625.462C625.75 325.425 626.038 325.449 626.326 325.497H626.758C630.122 325.593 632.885 326.362 635.048 327.804C637.21 329.246 638.771 330.904 639.733 332.778C640.694 334.604 641.174 336.454 641.174 338.328C641.174 340.251 640.694 342.149 639.733 344.023C638.819 345.849 637.258 347.483 635.048 348.925C632.885 350.367 630.122 351.136 626.758 351.232H614.074C614.458 353.634 615.25 355.413 616.452 356.566C617.605 357.719 619.071 358.296 620.849 358.296H636.416C637.762 358.344 638.868 358.849 639.733 359.81C640.645 360.771 641.101 361.924 641.101 363.27C641.054 364.567 640.573 365.673 639.661 366.586C638.796 367.451 637.714 367.907 636.416 367.955H619.552C615.996 368.004 612.776 366.61 609.894 363.774C607.011 360.939 605.256 357.575 604.631 353.683C603.766 349.357 603.334 346.931 603.334 346.402C603.334 345.056 603.791 343.927 604.704 343.014C605.665 342.053 606.817 341.572 608.164 341.572H627.191C628.104 341.524 628.848 341.332 629.425 340.995C630.05 340.611 630.507 340.203 630.795 339.77C631.083 339.289 631.228 338.809 631.228 338.328C631.228 337.848 631.083 337.391 630.795 336.959C630.507 336.478 630.05 336.07 629.425 335.733C628.848 335.349 628.104 335.133 627.191 335.085H607.659H601.893C600.643 335.133 600.018 335.757 600.018 336.959V364.279Z" fill="white"/>
</g>
<defs>
<filter id="filter0_d_375_69" x="387" y="312" width="258.174" height="70.0049" filterUnits="userSpaceOnUse" color-interpolation-filters="sRGB">
<feFlood flood-opacity="0" result="BackgroundImageFix"/>
<feColorMatrix in="SourceAlpha" type="matrix" values="0 0 0 0 0 0 0 0 0 0 0 0 0 0 0 0 0 0 127 0" result="hardAlpha"/>
<feOffset dy="4"/>
<feGaussianBlur stdDeviation="2"/>
<feComposite in2="hardAlpha" operator="out"/>
<feColorMatrix type="matrix" values="0 0 0 0 0 0 0 0 0 0 0 0 0 0 0 0 0 0 0.25 0"/>
<feBlend mode="normal" in2="BackgroundImageFix" result="effect1_dropShadow_375_69"/>
<feBlend mode="normal" in="SourceGraphic" in2="effect1_dropShadow_375_69" result="shape"/>
</filter>
<radialGradient id="paint0_radial_375_69" cx="0" cy="0" r="1" gradientUnits="userSpaceOnUse" gradientTransform="translate(855 475) rotate(90) scale(475 855)">
<stop stop-color="#68665F"/>
<stop offset="1"/>
</radialGradient>
</defs>
</svg>
